PathFileType	4	(X/Y/Z)	SUBJ32_0_static_RCNL2025.trc
DataRate	CameraRate	NumFrames	NumMarkers	Units	OrigDataRate	OrigDataStartFrame	OrigNumFrames
100	100	7	25	mm	100	1	114
Frame#	Time	R_Shoulder			L_Shoulder			C7			J_Notch			R_Elbow			L_Elbow			R_Wrist			L_Wrist			R_Asis			L_Asis			Sacral			Thoracic			Sternum			R_Thigh_Lateral			R_Knee_Lateral			R_Shank_Lateral			R_Ankle_Lateral			R_Heel			R_Toe			L_Thigh_Lateral			L_Knee_Lateral			L_Shank_Lateral			L_Ankle_Lateral			L_Heel			L_Toe		
		X1	Y1	Z1	X2	Y2	Z2	X3	Y3	Z3	X4	Y4	Z4	X5	Y5	Z5	X6	Y6	Z6	X7	Y7	Z7	X8	Y8	Z8	X9	Y9	Z9	X10	Y10	Z10	X11	Y11	Z11	X12	Y12	Z12	X13	Y13	Z13	X14	Y14	Z14	X15	Y15	Z15	X16	Y16	Z16	X17	Y17	Z17	X18	Y18	Z18	X19	Y19	Z19	X20	Y20	Z20	X21	Y21	Z21	X22	Y22	Z22	X23	Y23	Z23	X24	Y24	Z24	X25	Y25	Z25
1	0.00000000	-235.060852	1368.633789	-52.759979	-263.191254	1366.303955	-423.322540	-283.190338	1441.178345	-226.516556	-148.399872	1352.714478	-241.747696	-270.166992	1037.015259	54.674782	-300.567688	1051.214355	-527.113342	-205.819496	798.390442	73.746534	-243.747055	802.862427	-576.259399	-150.229324	912.710327	-123.264137	-157.367706	905.520386	-375.010040	-349.117004	955.016174	-239.051056	-360.869781	1205.914673	-231.184982	-66.223122	1129.151611	-246.100662	-269.015106	554.670898	-41.389359	-273.591400	456.088928	-84.178154	-302.967743	300.955231	-11.121806	-311.662140	68.626076	-114.635872	-357.351929	57.271343	-171.469101	-177.925354	49.965508	-132.003052	-265.812683	568.363770	-468.597809	-271.798767	473.596344	-423.899933	-310.270538	255.467651	-460.162628	-323.981171	62.199356	-379.458099	-364.403137	51.750565	-325.359833	-184.973755	40.621502	-380.115631
2	0.01000000	-235.204025	1368.726685	-52.821869	-263.339813	1366.209595	-423.353210	-283.341248	1441.125244	-226.516281	-148.673279	1352.833984	-241.838516	-270.186707	1037.013672	54.691208	-300.646240	1051.139404	-527.159668	-205.576584	798.521942	73.841785	-243.744492	802.871674	-576.313171	-150.117004	912.848633	-123.319923	-157.223007	905.610840	-375.011688	-349.127045	954.958984	-239.005173	-360.940277	1205.855957	-231.230057	-66.351364	1129.175903	-246.165466	-269.040833	554.699768	-41.355526	-273.575378	456.051758	-84.173889	-302.980804	300.974884	-11.069497	-311.712341	68.631432	-114.600655	-357.394684	57.357914	-171.402527	-177.903244	49.939739	-132.006149	-265.854980	568.365723	-468.568909	-271.824677	473.541992	-423.896851	-310.273102	255.428177	-460.168060	-323.983948	62.168350	-379.499481	-364.414062	51.788502	-325.327911	-184.978729	40.629120	-380.124084
3	0.02000000	-235.336395	1368.745605	-52.869732	-263.483582	1366.222290	-423.405762	-283.465973	1441.041260	-226.553909	-148.999222	1352.844116	-241.848007	-270.061707	1037.117676	54.672462	-300.697998	1051.118652	-527.184387	-205.391457	798.650452	73.947523	-233.411469	806.091217	-574.289398	-150.241531	912.772949	-123.203629	-157.313202	905.596008	-375.030090	-349.126312	954.922424	-239.037048	-361.055420	1205.809814	-231.276245	-66.423950	1129.164917	-246.101700	-268.931854	554.604492	-41.350021	-273.478516	456.088867	-84.121956	-302.885254	300.978851	-10.992203	-311.681946	68.609123	-114.604095	-357.413696	57.332867	-171.381485	-177.918015	49.925396	-132.002655	-265.826813	568.329163	-468.569641	-271.729645	473.606293	-423.927826	-310.282684	255.461182	-460.157471	-323.937775	62.246277	-379.462677	-364.382324	51.777481	-325.358093	-184.979507	40.623001	-380.113159
4	0.03000000	-235.530807	1368.804565	-52.935158	-263.574921	1366.145508	-423.464447	-283.760193	1440.975342	-226.599335	-149.256104	1352.966919	-241.893707	-269.951202	1037.113770	54.590740	-300.758911	1051.168457	-527.270935	-205.129578	798.756195	74.033869	-233.372917	806.085083	-574.346680	-150.293976	912.769104	-123.164429	-157.429916	905.530273	-374.952728	-349.206940	954.959351	-238.962326	-361.068268	1205.750366	-231.279160	-66.542763	1129.158691	-246.126389	-268.927887	554.629211	-41.293468	-273.403931	456.026581	-84.053772	-302.758423	300.906158	-10.981176	-311.617340	68.643745	-114.527344	-357.311646	57.325840	-171.334381	-177.905029	49.938915	-132.005478	-265.793976	568.366211	-468.551270	-271.818359	473.586395	-423.994751	-310.293762	255.445053	-460.102234	-323.959229	62.204311	-379.516327	-364.395142	51.762039	-325.337708	-184.975510	40.622684	-380.123383
5	0.04000000	-235.692245	1368.893066	-52.987209	-263.721924	1366.175781	-423.464294	-283.949982	1440.962524	-226.700790	-149.556747	1352.987183	-241.929657	-269.931183	1037.182739	54.714703	-300.839417	1051.189819	-527.315186	-205.009773	798.802216	74.101112	-233.449402	806.073883	-574.497406	-150.214294	912.773987	-123.133301	-157.446320	905.553650	-374.956268	-349.193726	954.813660	-238.982666	-361.179840	1205.649902	-231.316666	-66.648224	1129.246094	-246.141129	-268.841034	554.609680	-41.252697	-273.395142	456.037781	-84.048492	-302.741486	300.877808	-10.998343	-311.618500	68.663109	-114.524071	-357.368195	57.297470	-171.365753	-177.852188	49.945240	-132.013824	-265.749756	568.422913	-468.530792	-271.728851	473.598602	-423.919922	-310.282043	255.478210	-460.121613	-323.971558	62.187107	-379.436371	-364.389404	51.718220	-325.364288	-184.976685	40.581795	-380.127167
6	0.05000000	-235.821365	1368.933960	-53.025620	-263.897888	1366.181519	-423.572662	-284.164459	1440.908813	-226.763184	-149.768417	1352.991089	-241.927963	-269.911163	1037.271851	54.715286	-300.968842	1051.147583	-527.493958	-204.923859	798.912750	74.198696	-233.470673	806.131592	-574.652527	-150.161545	912.754700	-123.129204	-157.441330	905.540161	-374.942627	-349.172882	954.787598	-239.004837	-361.235870	1205.675537	-231.388031	-66.714752	1129.223999	-246.074982	-268.758972	554.494324	-41.280251	-273.342804	456.091492	-84.074944	-302.692932	300.903229	-10.983909	-311.639252	68.646423	-114.523712	-357.339844	57.267876	-171.372330	-177.835815	49.899395	-132.001022	-265.737488	568.364136	-468.566772	-271.711243	473.606506	-423.926453	-310.290131	255.436707	-460.108124	-323.998444	62.141338	-379.404327	-364.390900	51.769428	-325.341125	-184.922623	40.605633	-380.069122
7	0.06000000	-236.020111	1368.944458	-53.145653	-263.951630	1366.191040	-423.646301	-284.462524	1440.807129	-226.793060	-149.985504	1353.129517	-242.024994	-269.817383	1037.275757	54.757439	-301.038605	1051.144043	-527.603577	-204.847374	798.955627	74.222198	-233.496178	806.141876	-574.754761	-150.202454	912.810791	-123.040123	-157.416443	905.621277	-374.913025	-349.258270	954.740906	-238.946930	-361.371521	1205.565552	-231.420761	-66.804756	1129.330322	-246.084854	-268.706543	554.580994	-41.201832	-273.283112	456.068726	-84.005081	-302.633698	300.850891	-11.050897	-311.610138	68.643387	-114.530266	-357.321198	57.294060	-171.391724	-177.848190	49.925201	-132.014481	-265.772430	568.355469	-468.538330	-271.661499	473.529572	-423.892609	-310.257172	255.456070	-460.108826	-324.048553	62.163864	-379.444000	-364.366150	51.718296	-325.401489	-184.970291	40.637249	-380.091339
